<?xml version="1.0" standalone="no"?>
<!DOCTYPE svg PUBLIC "-//W3C//DTD SVG 20010904//EN"
 "http://www.w3.org/TR/2001/REC-SVG-20010904/DTD/svg10.dtd">
<svg version="1.0" xmlns="http://www.w3.org/2000/svg"
 width="5450.000000pt" height="3633.000000pt" viewBox="0 0 5450.000000 3633.000000"
 preserveAspectRatio="xMidYMid meet">

<g transform="translate(0.000000,3633.000000) scale(0.100000,-0.100000)"
fill="#000000" stroke="none">
<path d="M0 18165 l0 -18165 27250 0 27250 0 0 18165 0 18165 -4325 0 -4325 0
0 -22 c-1 -30 -98 -133 -176 -185 -33 -23 -84 -49 -112 -58 -56 -19 -66 -27
-76 -66 -13 -58 -157 -172 -261 -208 -51 -17 -65 -29 -65 -52 0 -11 -4 -19
-10 -19 -5 0 -10 -6 -10 -12 -1 -16 -46 -68 -58 -68 -6 0 -12 -6 -15 -14 -8
-19 -115 -77 -204 -110 -61 -23 -80 -37 -88 -66 -10 -40 -18 -51 -28 -41 -6 6
-18 11 -26 10 -11 0 -12 -2 -3 -6 6 -2 12 -9 12 -15 0 -10 -40 -47 -52 -48 -4
0 -18 -11 -31 -23 -12 -13 -50 -32 -82 -42 -33 -10 -64 -21 -70 -25 -5 -4 -33
-10 -62 -12 -41 -4 -53 -2 -59 11 -4 9 -6 20 -5 24 1 5 -11 7 -26 5 -20 -2
-29 -9 -31 -25 -2 -14 -10 -23 -21 -23 -33 0 -136 22 -145 31 -6 5 -15 9 -22
9 -30 0 -162 89 -227 154 -65 64 -128 159 -127 194 0 22 15 13 34 -20 21 -37
56 -78 66 -78 4 0 5 25 2 57 -4 46 -2 59 14 70 17 12 17 13 0 13 -11 0 -15 4
-9 13 4 6 6 22 5 34 -2 11 2 24 7 28 6 3 11 17 11 31 0 20 4 24 18 20 13 -5
24 5 42 40 35 64 54 72 74 32 9 -17 16 -39 16 -50 0 -11 13 -23 33 -32 17 -7
33 -12 35 -10 2 1 -8 23 -22 49 -31 54 -49 126 -36 139 6 6 13 -1 19 -16 5
-15 15 -29 20 -33 6 -3 11 -16 11 -29 0 -19 4 -21 35 -18 44 5 63 26 47 53
-27 42 -4 101 43 113 32 8 33 42 1 67 -26 20 -40 66 -22 72 20 7 45 -5 51 -24
12 -37 35 -13 35 36 0 44 18 36 44 -19 25 -53 91 -134 101 -124 3 3 -11 35
-30 72 -19 37 -35 76 -35 86 0 11 -5 31 -12 45 -10 22 -8 28 10 45 12 11 26
20 32 20 5 0 10 5 10 10 0 17 -155 13 -170 -5 -7 -8 -21 -15 -31 -15 -13 0
-19 -7 -19 -22 0 -13 -5 -30 -10 -38 -8 -12 -10 -9 -10 13 0 17 -5 27 -15 27
-18 0 -18 5 -5 31 11 19 -173 19 -15930 19 -9203 0 -15940 -4 -15940 -9 0 -14
81 -91 96 -91 7 0 16 -12 20 -27 12 -55 36 -119 70 -186 20 -39 23 -52 13 -63
-7 -9 -13 -55 -14 -117 -3 -136 -12 -175 -51 -221 -19 -22 -34 -43 -34 -48 0
-4 -6 -8 -13 -8 -8 0 -22 -9 -32 -20 -9 -10 -40 -27 -69 -36 -28 -9 -55 -20
-60 -25 -6 -5 -31 -9 -57 -9 -37 0 -50 5 -61 22 -9 14 -20 19 -31 15 -20 -8
-23 -27 -3 -27 7 0 20 -7 27 -17 8 -9 28 -22 46 -29 22 -10 33 -22 38 -45 9
-41 -6 -57 -39 -40 -13 8 -33 10 -46 6 -16 -5 -26 -1 -36 14 -9 12 -20 21 -25
21 -5 0 -23 10 -39 21 -26 20 -27 23 -12 38 14 15 12 16 -28 19 -24 2 -53 10
-64 18 -30 20 -46 17 -43 -8 2 -22 -2 -23 -78 -26 -62 -2 -90 1 -125 16 -25
11 -64 28 -87 37 -23 10 -50 26 -59 36 -15 17 -15 19 -1 25 9 3 31 1 49 -5 45
-14 210 -41 251 -41 50 0 50 9 3 45 -113 86 -147 120 -140 139 5 13 -1 16 -29
16 -19 0 -37 4 -39 9 -1 4 -13 11 -25 15 -17 5 -22 4 -18 -6 3 -7 1 -20 -4
-28 -8 -12 -27 -12 -128 -3 -129 11 -196 33 -186 60 4 11 3 14 -6 9 -16 -10
-51 21 -51 46 0 13 7 18 25 18 16 0 25 -6 25 -16 0 -8 4 -12 10 -9 5 3 22 0
37 -9 60 -31 252 -47 259 -21 2 6 -27 33 -63 60 -103 79 -113 89 -113 113 0
18 -4 21 -28 16 -19 -4 -32 -1 -41 10 -18 22 -37 20 -55 -5 -14 -20 -20 -21
-125 -14 -75 5 -114 12 -122 21 -6 8 -16 14 -22 14 -39 0 -266 148 -250 163 2
3 0 15 -7 26 -15 29 2 26 31 -5 29 -32 64 -50 105 -57 31 -5 95 -34 104 -47
13 -19 162 -51 227 -48 l68 3 -110 84 c-132 101 -123 93 -107 98 24 9 12 19
-25 21 -21 2 -45 10 -55 19 -16 14 -20 13 -49 -11 -17 -15 -39 -24 -48 -22 -9
3 -44 8 -78 11 -69 5 -163 35 -226 71 l-42 24 -5247 0 -5248 0 0 -18165z
m43954 17960 c3 -9 2 -23 -3 -33 -4 -9 -20 -42 -34 -72 -24 -54 -26 -56 -62
-55 -24 0 -42 6 -48 17 -9 13 2 29 59 87 38 39 72 71 75 71 4 0 10 -7 13 -15z
m206 -905 c0 -5 -7 -10 -16 -10 -8 0 -12 5 -9 10 3 6 10 10 16 10 5 0 9 -4 9
-10z m-6685 -976 c23 -9 48 -62 41 -90 -7 -28 -23 -30 -56 -7 -49 34 -73 77
-53 96 8 9 46 9 68 1z m9365 -2061 c3 -3 5 -89 5 -193 l0 -188 25 -22 c92 -79
100 -90 100 -130 0 -27 6 -42 18 -49 16 -10 16 -10 -2 -11 -20 0 -20 0 0 -15
19 -14 19 -14 -1 -15 l-20 -1 20 -9 c11 -5 14 -9 8 -9 -7 -1 -13 -13 -12 -28
0 -25 1 -26 9 -8 7 17 9 16 10 -10 4 -120 30 -1040 34 -1205 3 -113 7 -257 10
-320 3 -63 6 -334 6 -602 0 -373 3 -488 13 -491 7 -3 0 -6 -14 -6 -15 -1 -32
-8 -39 -16 -7 -8 -19 -15 -26 -15 -8 0 -20 -12 -26 -27 -7 -16 -13 -30 -14
-31 -2 -2 -16 4 -31 13 -28 16 -31 16 -64 -4 -19 -11 -41 -21 -50 -21 -34 0
-107 50 -120 83 -12 26 -14 229 -11 1177 1 630 6 1146 10 1147 4 2 7 77 6 168
0 91 3 168 8 171 4 3 8 45 8 93 0 67 4 92 15 101 8 7 15 19 15 26 0 8 11 24
25 36 24 21 24 24 19 117 -9 167 -12 186 -23 184 -16 -4 -13 16 4 33 8 9 15
33 15 56 0 39 0 40 33 33 17 -4 34 -9 37 -12z m-242 -660 c6 -16 13 -37 16
-48 2 -11 6 -306 7 -655 2 -669 -2 -1288 -8 -1207 -7 84 -23 50 -24 -50 0 -61
-3 -90 -8 -78 -21 51 -53 2065 -33 2036 8 -11 11 -9 17 8 9 29 20 26 33 -6z
m-161 -430 c-3 -10 -5 -4 -5 12 0 17 2 24 5 18 2 -7 2 -21 0 -30z m650 -155
c-3 -7 -5 -2 -5 12 0 14 2 19 5 13 2 -7 2 -19 0 -25z m-15382 -126 c6 -4 20
-21 33 -39 31 -45 30 -109 -4 -147 -22 -25 -29 -28 -57 -19 l-32 9 -3 102 -3
102 28 0 c15 0 33 -4 38 -8z m16025 -83 c0 -12 7 -19 20 -19 11 0 20 -4 20
-10 0 -5 9 -10 20 -10 17 0 20 -7 20 -50 0 -27 -4 -50 -10 -50 -5 0 -10 -11
-10 -24 0 -13 -7 -26 -15 -30 -8 -3 -15 -14 -15 -24 0 -10 -5 -23 -12 -30 -9
-9 -9 -12 0 -12 7 0 12 -9 12 -20 0 -11 5 -20 11 -20 6 0 9 -7 5 -15 -3 -9 1
-36 10 -61 16 -49 13 -74 -9 -74 -8 0 -19 -11 -25 -25 -8 -17 -20 -25 -36 -25
-29 0 -44 -18 -22 -26 17 -7 23 -74 7 -74 -5 0 -11 -12 -13 -27 l-4 -28 -13
30 c-9 22 -12 77 -9 195 1 91 -1 173 -5 182 -7 13 -3 17 15 21 20 4 20 4 -5 6
-24 1 -26 3 -17 21 6 11 7 20 3 20 -10 0 0 137 11 162 5 10 12 16 16 13 4 -3
10 4 13 15 7 25 37 16 37 -11z m-643 -41 c-3 -8 -6 -5 -6 6 -1 11 2 17 5 13 3
-3 4 -12 1 -19z m3 -193 c0 -58 -3 -105 -7 -105 -5 0 -7 47 -5 105 2 58 5 105
8 105 2 0 4 -47 4 -105z m0 -137 c0 -19 -2 -20 -10 -8 -13 19 -13 30 0 30 6 0
10 -10 10 -22z m157 -50 c-3 -7 -5 -2 -5 12 0 14 2 19 5 13 2 -7 2 -19 0 -25z
m-46717 -158 c0 -5 -4 -10 -10 -10 -5 0 -10 5 -10 10 0 6 5 10 10 10 6 0 10
-4 10 -10z m45043 -57 c11 4 13 0 10 -14 -4 -14 -14 -19 -39 -19 -19 0 -34 -4
-34 -10 0 -5 15 -10 34 -10 l34 0 1 -117 c0 -65 -3 -144 -8 -177 -7 -53 -6
-59 10 -63 23 -6 25 -23 4 -23 -8 0 -15 -4 -15 -10 0 -5 5 -10 11 -10 6 0 9
-19 8 -47 -2 -27 1 -63 5 -80 5 -22 4 -33 -3 -33 -7 0 -11 -24 -11 -60 0 -43
-4 -59 -12 -57 -7 1 -11 -5 -9 -13 11 -37 12 -122 2 -134 -20 -24 -61 -29 -82
-10 -20 18 -26 64 -9 64 6 0 10 15 10 33 0 17 5 48 10 67 11 37 1 103 -26 170
-16 40 -12 136 8 188 10 25 10 38 0 62 -7 17 -17 43 -24 58 -9 23 -8 39 3 75
7 26 17 47 21 47 4 0 8 9 8 20 0 11 -4 20 -10 20 -5 0 -10 5 -10 10 0 6 9 10
21 10 15 0 20 5 17 23 -2 18 1 21 20 19 17 -3 22 2 22 20 0 17 3 19 9 9 5 -8
16 -11 24 -8z m2364 -55 c-3 -8 -6 -5 -6 6 -1 11 2 17 5 13 3 -3 4 -12 1 -19z
m-234 -182 c-7 -12 -11 -12 -27 0 -19 13 -19 14 -2 14 15 0 16 3 6 15 -11 14
-7 19 13 16 4 0 8 25 9 57 2 53 2 52 5 -16 2 -40 0 -79 -4 -86z m44 112 c-3
-8 -6 -5 -6 6 -1 11 2 17 5 13 3 -3 4 -12 1 -19z m-20 -100 c-3 -7 -5 -2 -5
12 0 14 2 19 5 13 2 -7 2 -19 0 -25z m16 -195 c-13 -2 -33 -2 -45 0 -13 2 -3
4 22 4 25 0 35 -2 23 -4z m7 -23 c0 -5 -16 -10 -35 -10 -19 0 -35 5 -35 10 0
6 16 10 35 10 19 0 35 -4 35 -10z m-673 -42 c-3 -8 -6 -5 -6 6 -1 11 2 17 5
13 3 -3 4 -12 1 -19z m666 15 c-13 -2 -33 -2 -45 0 -13 2 -3 4 22 4 25 0 35
-2 23 -4z m-666 -75 c-3 -8 -6 -5 -6 6 -1 11 2 17 5 13 3 -3 4 -12 1 -19z
m-489 -385 l-1 -108 -7 100 c-7 93 -6 115 6 115 2 0 3 -48 2 -107z m-161 -295
c-2 -18 -4 -4 -4 32 0 36 2 50 4 33 2 -18 2 -48 0 -65z m-30397 -2248 c0 -9
-26 -35 -89 -90 -35 -29 -55 -32 -181 -28 -104 3 -113 5 -131 27 -26 32 -34
68 -19 86 10 12 48 15 216 15 126 0 204 -4 204 -10z m7797 -982 c-3 -8 -6 -5
-6 6 -1 11 2 17 5 13 3 -3 4 -12 1 -19z m-57 -3 c5 -3 10 -1 10 5 0 6 9 4 23
-5 13 -8 27 -12 30 -8 6 5 311 6 1167 2 146 0 240 -5 248 -11 8 -7 12 -7 12 3
0 9 3 10 10 3 7 -7 48 -9 110 -6 115 5 150 -1 150 -27 0 -21 -35 -31 -110 -31
-26 0 -72 -7 -101 -16 -30 -9 -60 -18 -68 -20 -7 -2 -10 -11 -7 -19 3 -9 0
-15 -9 -15 -8 0 -15 6 -15 14 0 16 -21 26 -65 32 -16 2 -42 6 -57 9 -39 6 -58
-3 -58 -30 0 -34 -20 -42 -21 -8 -1 27 -1 27 -8 4 -10 -36 -31 -38 -32 -4 -1
28 -1 28 -8 3 l-7 -25 -153 0 c-84 0 -155 3 -158 8 -9 15 -23 6 -24 -15 0 -23
0 -23 -9 -2 -5 12 -20 24 -35 26 -22 5 -26 2 -22 -13 3 -12 0 -19 -9 -19 -8 0
-15 11 -15 28 l-2 27 -4 -27 c-2 -16 -9 -28 -14 -28 -5 0 -10 12 -10 28 -2 24
-2 23 -9 -8 -5 -23 -8 -27 -9 -12 -1 21 -21 33 -21 13 0 -5 -18 -8 -40 -6 -22
2 -38 1 -36 -3 2 -4 -13 -6 -35 -4 -21 2 -76 -1 -121 -8 -153 -21 -717 -30
-1383 -22 -121 1 -232 0 -247 -2 -16 -2 -28 1 -28 6 0 5 -5 6 -11 2 -6 -3 -15
0 -20 7 -6 10 -9 10 -9 2 0 -9 -45 -12 -172 -13 -95 0 -186 -1 -203 -1 -16 -1
-84 1 -150 5 -66 4 -227 9 -358 11 -131 2 -242 7 -247 10 -16 10 -11 28 5 22
8 -4 17 -2 20 3 4 6 -5 10 -19 10 -21 0 -26 -5 -26 -25 0 -17 -5 -25 -17 -25
-14 0 -15 2 -5 9 10 6 10 10 -3 21 -9 7 -15 8 -15 2 0 -15 -31 -20 -58 -8 -16
7 -26 7 -30 0 -4 -6 -56 -11 -117 -13 -72 -1 -112 -6 -117 -14 -6 -9 -8 -9 -8
1 0 11 -37 12 -192 7 -150 -4 -193 -3 -200 7 -5 9 -8 8 -8 -6 0 -18 -1 -18
-20 -1 -19 17 -20 17 -21 -1 0 -11 -3 -13 -6 -6 -6 14 -269 18 -275 3 -7 -20
-749 -12 -916 10 -40 5 -100 9 -131 9 -40 0 -63 5 -71 15 -16 19 -30 19 -30
-1 0 -25 -33 -12 -41 16 -6 21 -7 19 -10 -15 -2 -38 -2 -38 -6 -7 -5 39 -22
43 -24 5 -2 -22 -3 -19 -9 12 l-7 40 -2 -37 c-1 -42 -21 -53 -21 -13 0 17 -8
29 -24 36 l-24 12 23 25 c23 24 28 25 222 34 109 5 237 12 286 16 55 5 91 4
97 -2 7 -7 10 -3 10 10 0 16 2 17 10 4 9 -13 11 -13 20 0 8 13 10 12 10 -3 0
-11 4 -15 12 -11 14 9 68 11 68 3 0 -3 28 -2 63 3 92 11 668 0 685 -14 8 -7
16 -8 20 -2 4 5 22 10 40 11 24 2 32 -2 33 -15 0 -10 3 -12 6 -4 2 6 11 12 19
12 8 0 14 -6 15 -12 0 -7 2 -8 5 -3 6 16 255 9 265 -7 5 -7 9 -8 9 -3 0 7 15
9 34 7 29 -3 36 -9 39 -31 3 -18 4 -14 6 14 1 30 4 36 11 25 9 -13 11 -13 20
0 7 11 10 7 11 -20 2 -26 3 -29 6 -10 3 23 8 25 52 25 29 0 44 -3 38 -8 -7 -5
0 -6 16 -3 72 16 83 17 62 7 -17 -8 -18 -10 -2 -10 12 -1 17 -10 19 -33 1 -28
2 -27 8 12 5 30 7 36 8 18 3 -39 22 -35 23 5 l1 32 7 -30 c4 -18 9 -25 14 -18
4 6 4 18 1 27 -7 17 6 21 22 7 10 -10 361 2 371 13 3 3 12 1 20 -5 10 -9 13
-7 13 7 1 18 1 18 11 2 5 -10 14 -18 19 -18 6 0 10 8 11 18 0 9 3 12 5 5 4 -8
43 -10 142 -8 168 5 385 7 776 6 164 0 303 2 308 5 30 19 769 27 798 9z
m-1967 -12 c-7 -2 -21 -2 -30 0 -10 3 -4 5 12 5 17 0 24 -2 18 -5z m-3226 -60
c-3 -10 -5 -4 -5 12 0 17 2 24 5 18 2 -7 2 -21 0 -30z m6523 -53 c0 -5 -4 -10
-9 -10 -5 0 -16 -3 -25 -6 -11 -4 -16 -1 -16 10 0 10 9 16 25 16 14 0 25 -4
25 -10z m-6090 -26 c0 -8 -5 -12 -10 -9 -6 4 -8 11 -5 16 9 14 15 11 15 -7z
m5440 -14 c0 -5 -2 -10 -4 -10 -3 0 -8 5 -11 10 -3 6 -1 10 4 10 6 0 11 -4 11
-10z m15905 -1380 c17 -11 36 -20 44 -20 8 0 31 -19 52 -42 36 -40 39 -41 39
-19 l0 24 20 -24 c11 -13 28 -34 38 -46 36 -42 45 -101 28 -189 -24 -126 -44
-162 -85 -149 -37 12 -51 63 -44 167 l6 94 -34 29 c-19 15 -33 32 -31 37 2 9
-49 11 -72 2 -9 -3 -16 -14 -16 -25 0 -10 -20 -42 -44 -72 -24 -30 -47 -68
-51 -85 -9 -41 -43 -112 -54 -112 -5 0 -7 -8 -4 -18 7 -29 -26 -155 -48 -178
-18 -19 -19 -33 -17 -145 1 -68 -1 -172 -4 -231 l-6 -108 28 0 c15 0 33 -7 41
-16 11 -14 14 -13 30 7 15 20 21 21 50 13 26 -7 37 -18 48 -48 13 -35 13 -41
-4 -72 -10 -19 -26 -34 -36 -34 -28 0 -49 11 -49 26 0 8 -4 14 -10 14 -5 0
-10 -7 -10 -15 0 -27 -42 -65 -72 -65 -15 0 -37 -9 -48 -20 l-21 -21 35 -69
c33 -68 34 -74 34 -189 0 -96 4 -124 17 -145 22 -32 34 -199 16 -210 -18 -12
-13 -31 24 -85 31 -46 40 -72 49 -134 1 -10 7 -22 12 -25 15 -11 34 -50 34
-69 0 -10 7 -31 15 -47 8 -15 15 -36 15 -46 0 -10 7 -21 16 -24 8 -3 13 -10 9
-15 -3 -5 -1 -12 4 -15 5 -4 19 -27 32 -54 12 -26 25 -49 29 -52 14 -12 71
-107 77 -128 5 -21 7 -22 22 -8 23 21 61 12 88 -20 13 -17 27 -25 37 -21 8 3
35 -5 59 -18 l43 -25 37 19 c21 11 47 17 58 14 13 -4 29 3 44 17 23 22 26 22
43 7 16 -15 20 -15 39 -2 12 8 29 12 38 9 10 -4 21 -1 26 7 7 11 9 11 9 1 0
-7 4 -11 9 -7 13 8 41 -23 41 -45 0 -10 -4 -22 -10 -25 -5 -3 -10 -17 -10 -29
0 -59 -95 -103 -120 -56 -6 11 -18 20 -26 20 -8 0 -13 -4 -9 -9 3 -5 -3 -16
-13 -23 -11 -7 -19 -17 -18 -23 0 -5 -18 -11 -40 -13 -34 -3 -46 1 -64 20
l-21 23 -18 -22 c-16 -19 -23 -20 -63 -13 -30 6 -56 20 -77 41 -25 24 -38 30
-59 26 -29 -6 -68 15 -58 32 3 5 -7 12 -23 16 -34 7 -63 33 -96 86 -14 21 -30
39 -36 39 -5 0 -8 4 -5 9 3 5 -1 11 -9 14 -15 6 -55 77 -55 98 0 6 -8 19 -18
28 -23 20 -58 103 -67 159 -4 23 -12 48 -19 55 -7 7 -15 24 -19 37 -3 14 -11
43 -17 65 -7 22 -15 61 -17 88 -3 26 -9 47 -13 47 -14 0 -31 122 -19 137 14
16 6 50 -27 118 -19 41 -24 69 -25 141 -1 59 -8 106 -20 139 -22 57 -22 58
-11 51 11 -6 36 80 28 99 -8 23 -25 18 -36 -9 -20 -54 -117 -81 -146 -42 -13
18 -14 17 -24 -10 -16 -41 -37 -62 -72 -69 -16 -4 -32 -13 -35 -21 -7 -18 -31
-18 -67 1 -36 19 -43 19 -55 -3 -7 -13 -4 -30 11 -60 20 -39 21 -47 10 -124
-20 -140 -28 -182 -41 -212 -6 -16 -9 -37 -6 -47 5 -14 0 -20 -19 -25 -14 -3
-26 -7 -26 -8 0 -1 7 -23 16 -49 14 -42 14 -51 0 -101 -9 -30 -21 -58 -26 -61
-6 -3 -10 -14 -10 -25 0 -10 -7 -21 -16 -24 -11 -4 -14 -13 -11 -28 7 -24 -20
-81 -56 -120 -28 -30 -42 -34 -52 -18 -9 15 -35 -7 -35 -29 0 -21 -46 -71 -66
-71 -8 0 -17 -7 -20 -15 -4 -8 -10 -12 -15 -9 -5 3 -9 1 -9 -4 0 -5 -15 -13
-34 -19 -31 -10 -37 -8 -57 13 -26 28 -32 29 -53 9 -21 -21 -42 -19 -68 9
-123 128 -130 146 -131 331 0 134 9 200 35 253 7 12 18 20 25 18 9 -4 13 4 13
26 0 36 55 128 76 128 7 0 16 11 20 25 3 14 10 22 15 19 5 -3 9 2 9 11 0 9 5
13 10 10 6 -3 10 0 10 7 0 10 10 13 34 10 33 -4 35 -2 42 34 8 47 39 84 71 84
15 0 38 15 62 40 36 38 41 40 65 29 14 -7 26 -16 26 -21 0 -4 5 -8 10 -8 6 0
10 10 10 23 0 35 28 69 51 62 11 -4 19 -2 19 5 0 6 4 8 10 5 14 -9 22 35 12
70 -5 17 -4 49 1 72 5 27 5 68 -2 110 -10 68 -8 88 11 77 7 -4 7 4 2 27 -8 31
-10 81 -6 169 2 46 2 126 0 170 -1 45 0 111 3 180 1 30 -1 69 -5 85 -7 28 -6
27 18 -10 19 -30 25 -35 25 -20 0 11 -6 31 -14 45 -20 34 -19 99 2 122 37 41
93 5 93 -61 0 -44 -15 -92 -33 -103 -6 -4 -8 -10 -4 -15 5 -4 12 -1 17 7 5 8
13 11 17 6 4 -5 2 -11 -4 -13 -15 -5 -18 -49 -4 -57 12 -8 14 -159 1 -205 -6
-22 -18 -44 -27 -50 -15 -8 -14 -12 7 -47 19 -32 24 -57 28 -134 4 -92 -2
-123 -30 -162 -10 -14 -8 -24 10 -56 12 -22 22 -55 23 -73 0 -33 17 -87 18
-61 1 7 5 10 11 7 5 -3 15 3 22 15 7 11 20 20 30 20 9 0 24 7 32 16 25 25 60
14 67 -21 7 -30 7 -30 8 -3 2 43 39 78 91 85 27 4 50 13 58 25 7 10 21 18 30
19 9 0 12 3 7 5 -13 5 -6 84 7 84 7 0 8 25 4 73 -8 90 7 173 35 188 20 10 20
11 -2 45 -19 32 -21 45 -17 131 4 73 9 99 22 108 11 9 16 28 16 67 0 62 20
120 55 158 13 14 25 43 28 68 5 45 30 82 54 82 7 0 13 8 13 19 0 31 29 104 50
123 10 10 29 18 41 18 11 0 32 9 46 20 31 24 31 24 68 0z m-26259 -61 c4 -7 8
-35 10 -63 2 -39 6 -52 19 -54 15 -3 17 -12 11 -66 -7 -74 -49 -194 -73 -212
-21 -15 -63 -8 -80 14 -25 31 -9 143 18 127 15 -10 10 52 -6 65 -11 9 -15 32
-15 82 0 60 3 72 25 93 25 26 78 34 91 14z m-1807 -58 c17 -17 22 -18 38 -6
10 8 37 15 60 15 33 0 50 -7 76 -30 21 -18 46 -30 63 -30 32 0 84 -44 84 -71
0 -10 10 -21 22 -25 40 -12 78 -81 78 -139 0 -18 10 -44 21 -60 32 -39 36
-213 7 -302 -11 -35 -23 -63 -27 -63 -13 0 -31 -49 -31 -85 0 -19 5 -35 11
-35 14 0 5 -39 -22 -94 -10 -22 -19 -48 -19 -57 0 -20 -26 -125 -34 -138 -3
-5 -8 -44 -11 -87 -3 -44 -8 -91 -11 -106 -3 -16 -1 -28 4 -28 19 0 63 28 86
55 16 19 29 25 43 21 21 -7 42 22 63 89 7 22 23 54 36 71 13 18 31 51 41 75
20 52 51 86 86 94 20 5 29 1 46 -23 11 -17 21 -41 21 -54 0 -42 -21 -102 -48
-138 -31 -40 -38 -52 -70 -108 -12 -23 -31 -46 -42 -52 -11 -6 -20 -18 -20
-28 0 -19 -63 -77 -68 -62 -7 20 -21 9 -53 -40 -32 -50 -92 -96 -110 -84 -5 3
-12 -2 -15 -10 -3 -9 -10 -14 -14 -11 -5 3 -11 1 -15 -5 -3 -5 -17 -10 -30
-10 -22 0 -47 -19 -28 -21 40 -4 73 -26 73 -49 0 -6 5 -8 11 -5 6 4 13 -2 16
-14 4 -14 13 -21 30 -21 29 0 79 -25 86 -42 3 -10 15 -7 45 10 44 24 82 28 98
12 7 -7 24 2 55 30 24 22 50 40 57 40 8 0 27 13 43 29 17 18 42 31 61 33 29 3
34 9 50 53 21 58 87 129 137 146 31 11 36 10 53 -11 15 -18 19 -19 24 -7 3 9
0 25 -6 37 -23 43 -15 102 26 197 8 17 14 42 14 55 1 40 25 116 43 136 9 10
17 26 17 35 0 26 24 97 32 97 5 0 8 6 8 14 0 7 7 19 15 26 8 7 15 21 15 32 0
16 40 100 70 148 5 8 17 32 26 53 24 54 55 73 94 57 16 -7 29 -15 28 -19 -1
-3 2 -14 7 -24 4 -11 1 -34 -8 -58 -8 -21 -11 -39 -6 -39 5 0 9 -5 9 -11 0 -6
-7 -9 -15 -6 -20 8 -50 -33 -65 -90 -7 -26 -20 -56 -28 -65 -8 -10 -12 -18 -8
-18 4 0 0 -7 -8 -16 -9 -8 -16 -25 -16 -37 0 -13 -16 -55 -35 -96 -19 -40 -35
-81 -35 -90 0 -10 -3 -21 -6 -24 -4 -4 -17 -31 -29 -61 -20 -49 -21 -56 -7
-82 13 -25 13 -36 -3 -99 -10 -38 -21 -74 -25 -80 -4 -5 -11 -35 -15 -65 -4
-30 -11 -61 -15 -70 -32 -65 -51 -112 -54 -136 -8 -60 -19 -93 -27 -88 -5 3
-9 -4 -9 -16 0 -12 -4 -18 -10 -15 -6 4 -10 -5 -10 -19 0 -33 5 -33 47 4 18
17 39 30 46 30 7 0 23 14 36 30 26 34 41 38 41 13 0 -33 58 37 69 84 8 29 23
54 45 73 29 26 34 37 39 93 6 64 23 117 38 117 5 0 11 16 15 37 4 20 13 48 20
62 8 14 14 31 14 37 0 6 9 19 20 29 10 9 24 33 30 51 7 19 16 34 21 34 5 0 9
6 9 13 0 8 20 36 45 63 25 27 47 56 50 65 6 18 46 39 76 39 11 0 31 13 44 28
50 59 282 87 302 36 3 -8 10 -11 17 -7 34 22 119 -18 136 -63 13 -32 28 -30
36 4 19 90 94 120 129 51 28 -52 18 -116 -32 -211 -8 -16 -12 -28 -9 -28 2 0
-4 -23 -13 -51 -10 -28 -17 -64 -15 -80 2 -19 -1 -28 -9 -26 -9 1 -12 -22 -12
-88 0 -72 -5 -100 -23 -139 -12 -26 -20 -52 -17 -56 3 -4 0 -21 -5 -36 -10
-29 -19 -96 -23 -169 -2 -40 -2 -40 38 -43 22 -2 44 -7 49 -12 17 -17 70 11
119 65 29 30 60 55 70 55 9 0 17 7 17 15 0 8 14 21 30 30 21 11 30 23 30 40 0
34 28 115 53 149 19 27 19 30 3 56 -9 16 -16 37 -16 47 0 30 29 121 44 135 7
7 15 31 18 54 3 22 17 65 31 95 14 30 31 76 37 104 6 27 22 70 34 95 13 25 29
65 36 90 6 25 20 60 31 78 10 18 19 43 19 55 0 13 15 54 33 92 19 39 37 83 41
100 4 16 18 52 31 80 13 27 33 79 45 115 12 36 29 76 39 90 10 14 21 35 25 47
19 59 95 131 96 91 1 -7 16 4 34 26 30 35 37 39 81 38 47 -1 95 -29 95 -56 0
-6 13 -26 29 -44 17 -18 32 -50 36 -73 8 -46 -9 -130 -35 -174 -10 -16 -21
-50 -25 -75 -4 -25 -11 -47 -15 -50 -12 -9 -58 -104 -65 -135 -3 -16 -20 -49
-36 -73 -16 -24 -36 -58 -43 -75 -7 -18 -28 -48 -46 -67 -17 -19 -38 -50 -45
-68 -17 -38 -73 -92 -90 -86 -7 3 -19 -14 -30 -43 -10 -26 -27 -58 -37 -70
-11 -12 -18 -26 -14 -31 9 -15 -15 -66 -41 -86 -24 -18 -54 -23 -83 -15 -9 2
-22 -10 -34 -34 -12 -25 -21 -35 -26 -27 -11 18 -20 -13 -13 -47 7 -35 7 -37
-9 -98 -6 -27 -16 -53 -22 -57 -11 -8 -12 -16 -25 -172 -5 -65 -7 -124 -5
-131 3 -7 16 -18 29 -25 12 -7 28 -22 33 -34 6 -11 11 -16 11 -11 1 11 107 5
127 -7 6 -4 28 8 49 27 20 19 40 33 44 31 4 -3 12 8 19 23 7 16 27 44 45 62
18 19 40 47 50 62 10 15 30 32 44 38 51 19 82 50 94 92 7 23 16 47 20 52 4 6
10 35 14 65 8 60 28 115 51 141 8 9 21 42 29 74 9 31 24 70 35 85 11 16 20 37
20 48 0 32 29 106 47 119 15 11 15 21 7 75 -10 59 0 120 25 153 5 5 14 35 21
65 7 30 22 75 35 100 12 25 30 70 40 100 9 30 26 67 36 82 11 15 26 46 35 70
25 73 41 90 75 83 25 -6 29 -4 29 15 0 29 26 77 49 90 39 20 121 3 121 -27 0
-8 12 -13 33 -13 20 0 40 -7 49 -17 23 -26 41 -89 33 -114 -4 -12 -7 -40 -6
-63 1 -44 -23 -125 -49 -166 -9 -14 -26 -57 -38 -96 -12 -40 -29 -77 -37 -84
-8 -7 -15 -22 -15 -34 -1 -24 -109 -259 -133 -287 -9 -10 -28 -38 -43 -61 -45
-73 -114 -138 -147 -138 -23 0 -31 7 -43 35 -17 42 -44 47 -44 8 0 -31 -22
-110 -40 -142 -5 -11 -17 -59 -25 -107 -9 -47 -22 -96 -30 -107 -8 -12 -15
-35 -15 -53 0 -17 -7 -53 -15 -80 -18 -60 -18 -65 -2 -61 8 1 12 -13 12 -48 0
-27 6 -63 13 -78 6 -16 12 -34 12 -41 0 -15 29 -55 30 -40 0 11 32 10 103 -2
31 -5 45 -1 78 21 39 25 42 26 60 10 17 -17 19 -16 28 6 5 13 15 43 22 66 6
24 22 49 34 57 14 9 30 38 40 70 10 30 26 64 36 75 11 11 19 25 19 31 0 5 5
10 10 10 6 0 10 11 10 25 0 14 7 37 16 50 9 14 14 25 11 25 -2 0 11 16 29 36
19 19 34 40 34 45 0 15 67 10 84 -7 30 -30 31 -64 3 -115 -15 -26 -27 -53 -27
-61 0 -8 -17 -41 -38 -74 -21 -32 -43 -77 -50 -99 -6 -22 -23 -56 -37 -75 -14
-18 -25 -40 -25 -47 0 -14 -120 -140 -120 -126 0 4 -5 0 -11 -9 -6 -11 -22
-18 -39 -18 -15 0 -30 -3 -32 -7 -9 -22 -138 -73 -138 -55 0 13 -63 32 -107
32 -35 0 -47 7 -97 55 -33 31 -61 68 -67 87 -12 43 -12 125 1 133 6 3 10 15
10 26 0 22 -28 26 -36 4 -4 -8 -12 -15 -20 -15 -8 0 -14 -4 -14 -9 0 -5 -10
-11 -22 -13 -14 -2 -25 -14 -32 -36 -14 -41 -88 -125 -140 -159 -31 -20 -43
-23 -57 -15 -13 8 -26 6 -55 -9 -56 -28 -88 -25 -133 16 -26 24 -41 31 -44 23
-8 -24 -60 14 -100 75 -32 47 -44 57 -67 57 -31 0 -45 -13 -55 -53 -6 -22 -65
-80 -65 -63 0 3 -15 -8 -32 -25 -40 -36 -59 -36 -114 -4 -38 23 -44 23 -52 9
-6 -11 -16 -14 -29 -10 -21 7 -74 51 -73 61 1 21 -1 25 -10 20 -5 -3 -10 -1
-10 5 0 6 -4 9 -9 6 -11 -7 -41 65 -41 99 0 14 -5 25 -11 25 -18 0 -53 -22
-72 -47 -23 -29 -68 -53 -101 -53 -15 0 -27 -7 -31 -18 -11 -38 -100 -57 -125
-27 -16 20 -36 19 -44 -1 -11 -28 -95 -13 -121 21 -11 14 -36 43 -55 63 -20
20 -42 52 -49 70 -7 17 -17 32 -21 32 -5 0 -40 -34 -79 -76 -45 -49 -79 -76
-95 -78 -27 -3 -56 -23 -56 -38 0 -19 -65 -68 -92 -68 -5 0 -19 -9 -31 -20
-12 -12 -23 -16 -25 -10 -5 14 -52 13 -53 -2 0 -7 -4 -4 -9 7 -7 17 -9 17 -9
3 -1 -10 -5 -18 -11 -18 -5 0 -10 -16 -10 -36 0 -50 -20 -124 -34 -124 -6 0
-19 -16 -28 -35 -10 -19 -25 -52 -35 -72 -10 -20 -25 -38 -35 -41 -10 -2 -14
-10 -11 -20 4 -10 3 -14 -1 -10 -13 11 -33 -15 -28 -36 3 -12 1 -17 -5 -13 -6
4 -13 -3 -16 -14 -3 -11 -15 -23 -26 -26 -12 -3 -21 -10 -21 -17 0 -6 -13 -24
-30 -39 -24 -23 -30 -25 -30 -12 0 13 -14 5 -52 -29 -70 -62 -109 -80 -143
-64 -20 9 -31 8 -50 -2 -31 -17 -91 -7 -120 20 -12 11 -26 20 -32 20 -20 0
-79 79 -92 122 -7 24 -16 45 -20 48 -4 3 -17 20 -30 38 -32 46 -34 149 -3 210
13 23 26 42 30 42 4 0 16 16 26 35 24 44 80 79 118 71 20 -4 32 0 45 17 20 23
27 26 84 34 30 4 39 1 53 -18 l16 -24 6 22 c8 29 51 43 130 43 35 0 65 4 68 8
3 5 38 10 77 11 94 3 105 9 112 68 5 42 37 125 37 98 0 -18 19 20 36 73 9 29
15 55 12 57 -2 3 -29 -20 -60 -49 -40 -39 -62 -53 -75 -50 -14 4 -25 -3 -38
-23 -36 -55 -61 -74 -103 -80 -27 -4 -47 -1 -57 7 -14 11 -17 10 -21 -8 -8
-27 -61 -51 -101 -45 -24 4 -33 1 -33 -8 0 -11 -2 -11 -10 1 -6 10 -10 11 -10
3 0 -7 -4 -13 -10 -13 -5 0 -10 6 -10 14 0 11 -10 13 -38 9 -31 -4 -44 0 -70
22 -18 15 -32 35 -32 45 0 23 -18 36 -32 22 -20 -20 -64 15 -99 81 -27 50 -50
77 -69 77 -8 0 -23 7 -33 14 -16 12 -24 12 -52 0 -47 -19 -79 -18 -99 5 -10
11 -25 17 -36 14 -23 -6 -79 35 -79 59 -1 24 -18 31 -29 12 -16 -29 -69 -10
-131 48 -62 57 -114 126 -105 139 2 5 -9 23 -25 40 -17 17 -33 40 -36 50 -4
11 -10 19 -14 19 -4 0 -8 6 -8 13 0 7 -13 42 -30 77 -50 108 -53 118 -53 204
0 69 3 87 20 106 21 25 28 76 9 64 -19 -12 -5 108 17 152 12 21 24 56 28 77 9
51 51 139 115 241 22 36 25 37 37 21 12 -17 15 -14 34 26 11 24 20 49 20 54 0
14 124 123 152 134 13 4 34 7 47 4 15 -2 33 4 45 16 44 42 96 51 125 22z
m29960 -416 c10 -18 22 -48 27 -66 8 -37 7 -257 -2 -301 -3 -15 -2 -33 3 -40
11 -18 14 -254 3 -300 -4 -21 -4 -36 0 -33 12 7 17 -52 8 -94 -4 -19 -2 -43 3
-53 6 -11 9 -45 7 -77 -3 -61 12 -94 37 -85 7 3 22 1 33 -5 17 -9 22 -5 38 36
11 26 28 49 41 54 16 6 23 20 29 56 7 53 17 77 45 107 14 15 19 16 20 5 0 -8
4 -6 8 6 5 11 5 25 1 30 -10 14 -12 36 -11 135 1 63 5 88 16 96 13 9 13 20 4
67 -14 66 -6 118 21 142 18 16 22 16 42 3 58 -38 74 -198 28 -273 -20 -32 -20
-36 -5 -65 18 -34 13 -129 -10 -215 -8 -27 -16 -62 -20 -78 -3 -15 -13 -35
-23 -45 -9 -10 -23 -30 -31 -44 -8 -15 -17 -25 -21 -23 -3 2 -12 -11 -18 -28
-7 -18 -28 -48 -47 -67 -33 -32 -35 -33 -53 -16 -22 19 -25 16 -57 -46 -18
-35 -30 -43 -61 -39 -7 1 -14 -11 -17 -26 -6 -34 2 -83 14 -83 13 0 11 -73 -2
-107 -6 -15 -13 -56 -15 -91 -2 -35 -13 -91 -24 -124 -11 -34 -20 -81 -20
-105 0 -44 -33 -136 -57 -161 -8 -8 -20 -28 -27 -45 -15 -35 -62 -87 -80 -87
-6 0 -26 -16 -43 -35 -35 -38 -69 -45 -88 -18 -11 15 -14 14 -25 -8 -7 -13
-18 -27 -24 -32 -18 -12 -116 -5 -116 8 0 7 -7 18 -16 25 -13 11 -16 10 -21
-9 -4 -14 -11 -20 -20 -17 -8 3 -20 6 -28 6 -7 0 -42 29 -77 63 -55 54 -70 77
-98 148 -24 60 -35 105 -38 159 -3 68 -1 82 28 145 38 85 78 145 96 145 7 0
15 8 19 19 9 30 56 78 62 64 2 -7 15 -13 28 -13 23 0 35 17 35 49 0 23 28 48
63 56 16 4 35 18 43 30 17 27 55 36 95 25 26 -8 29 -6 29 14 0 50 121 101 156
66 8 -8 19 2 38 30 14 22 31 40 36 40 16 0 11 32 -7 53 -10 10 -25 40 -34 65
l-17 47 -11 -30 c-14 -34 -59 -85 -76 -85 -6 0 -30 -18 -54 -40 -48 -45 -53
-47 -76 -24 -18 18 -45 12 -45 -10 0 -38 -123 -25 -133 14 -6 23 -39 39 -45
22 -8 -25 -36 -10 -92 47 -54 54 -110 143 -110 173 0 7 -7 26 -15 42 -15 29
-35 128 -32 162 1 10 6 22 12 26 5 4 10 56 10 116 1 85 5 115 18 135 9 15 17
41 17 60 0 49 43 152 63 151 10 -1 20 13 29 40 12 39 15 41 53 42 65 1 66 2
63 31 -3 25 2 29 51 47 l54 20 18 -22 c21 -26 35 -28 43 -6 5 14 16 16 59 11
42 -5 57 -13 77 -37 18 -21 31 -28 46 -24 14 4 31 -3 52 -21 18 -15 33 -21 37
-15 3 5 1 10 -4 10 -6 0 -11 12 -11 27 0 21 3 24 12 15 22 -22 26 -13 16 31
-13 53 -12 78 3 87 20 13 48 -1 68 -35z m-28489 -185 c0 -5 -4 -10 -10 -10 -5
0 -10 5 -10 10 0 6 5 10 10 10 6 0 10 -4 10 -10z m27367 -117 c66 -58 103
-114 103 -155 0 -13 9 -40 20 -61 12 -21 26 -73 32 -115 10 -73 9 -81 -12
-122 -18 -36 -23 -63 -24 -135 -1 -65 -6 -97 -18 -115 -11 -18 -14 -32 -7 -47
11 -30 27 -29 35 2 3 13 21 33 40 44 27 16 34 27 34 52 0 45 20 106 41 125 17
15 20 15 44 0 80 -53 85 -186 9 -264 -19 -19 -34 -40 -34 -47 0 -6 -18 -21
-39 -33 -40 -23 -69 -21 -84 5 -12 19 -27 16 -27 -7 0 -20 -16 -27 -75 -32
-27 -3 -31 -7 -36 -43 -7 -54 -25 -84 -56 -96 -20 -7 -30 -6 -43 6 -22 20 -40
19 -40 -1 0 -9 -12 -28 -27 -41 -21 -20 -33 -24 -62 -19 -19 3 -40 1 -47 -5
-9 -7 -19 -6 -33 3 -16 10 -23 10 -33 0 -14 -14 -48 -16 -48 -2 0 6 -7 10 -16
10 -8 0 -22 16 -30 35 -13 33 -34 48 -34 25 0 -5 -11 -10 -25 -10 -18 0 -33
13 -57 46 -18 25 -43 57 -55 70 -27 29 -73 142 -86 209 -13 68 -16 207 -7 280
5 36 4 65 -2 72 -11 14 -1 68 18 98 7 11 18 41 24 67 14 55 57 109 70 88 12
-20 39 -4 46 27 4 15 16 41 27 56 16 23 24 27 48 22 22 -5 29 -3 29 9 0 28 49
19 80 -16 23 -25 32 -29 43 -20 8 7 17 9 20 5 4 -3 7 1 7 9 0 8 9 27 21 42 26
33 73 35 106 4 22 -21 23 -21 23 -1 0 27 8 33 43 33 21 0 46 -15 94 -57z
m-26921 -51 c-12 -11 -18 7 -10 30 l8 23 4 -23 c2 -13 1 -26 -2 -30z m27944
-823 c0 -11 -4 -17 -10 -14 -5 3 -10 13 -10 21 0 8 5 14 10 14 6 0 10 -9 10
-21z m-7536 -3114 c7 -36 1 -75 -12 -75 -25 1 -30 17 -19 63 12 56 22 60 31
12z m1296 -19 c0 -39 -13 -66 -26 -54 -7 8 8 98 17 98 5 0 9 -20 9 -44z
m-1287 -188 l-10 -23 -12 23 c-9 17 -9 32 0 65 l13 42 9 -43 c7 -27 6 -50 0
-64z m1297 31 c0 -21 -4 -39 -10 -39 -5 0 -10 21 -10 46 0 27 4 43 10 39 6 -3
10 -24 10 -46z m-1476 -234 c21 -25 42 -45 47 -45 4 0 9 12 11 28 2 20 9 28
27 30 22 4 23 1 17 -29 -3 -18 -11 -36 -17 -39 -6 -4 -7 -23 -3 -47 6 -39 5
-41 -26 -52 -18 -6 -41 -11 -50 -11 -27 0 -41 46 -34 111 4 38 3 59 -4 59 -5
0 -13 -7 -16 -16 -8 -21 -26 -8 -26 20 0 51 25 48 74 -9z m770 29 c29 -28 16
-152 -18 -175 -5 -4 -24 -7 -43 -7 -29 0 -36 5 -49 37 -18 42 -11 123 13 146
19 20 77 19 97 -1z m-559 -23 c7 -31 -8 -71 -26 -71 -17 0 -31 52 -20 77 15
32 38 29 46 -6z m1385 -71 c56 -43 64 -69 64 -217 1 -114 -2 -135 -17 -150
-26 -26 -34 -6 -43 99 -7 90 -18 114 -39 85 -20 -27 -23 -21 -24 49 0 40 3 63
9 59 6 -3 10 -2 10 3 0 5 -9 12 -20 15 -16 4 -21 -2 -27 -32 -4 -20 -8 -47 -9
-61 -1 -14 -2 -33 -3 -42 -2 -35 -37 -20 -51 21 -15 45 -8 71 20 78 19 5 50
53 50 79 0 7 -5 14 -12 16 -6 2 -9 12 -5 21 9 23 51 14 97 -23z m-180 -120
c10 -6 2 -7 -25 -3 -49 7 -58 13 -19 13 16 0 36 -5 44 -10z m-1422 -333 c3
-224 -1 -273 -18 -262 -5 3 -4 -9 1 -27 14 -47 23 -728 10 -728 -5 0 -10 -8
-10 -17 -1 -20 -7 -121 -10 -141 -1 -9 -6 -10 -18 -4 -13 8 -18 27 -20 88 -1
44 -4 97 -5 119 -1 22 0 74 2 115 1 41 3 161 3 265 1 105 1 282 1 395 1 113 5
264 10 337 l9 131 21 -21 c21 -21 22 -32 24 -250z m1643 -827 c12 0 11 -66 -2
-115 -10 -34 -13 -37 -19 -20 -4 11 -5 54 -2 95 3 41 8 67 10 58 2 -10 8 -18
13 -18z m-14901 -3785 c0 -11 -11 -15 -35 -15 -20 0 -52 -7 -72 -15 -29 -12
-38 -13 -45 -3 -8 14 5 19 97 36 28 5 51 10 53 11 1 0 2 -6 2 -14z m22640 -20
c0 -12 -18 -15 -102 -16 -192 -2 -244 3 -233 21 3 4 79 8 170 9 141 1 165 -1
165 -14z m335 5 c3 -5 -5 -12 -19 -16 -28 -7 -66 3 -66 17 0 12 77 12 85 -1z
m615 -8 c-8 -3 -18 -10 -22 -16 -5 -6 -8 -2 -8 11 0 17 4 20 22 15 16 -4 18
-7 8 -10z m-1993 -8 c-3 -3 -12 -4 -19 -1 -8 3 -5 6 6 6 11 1 17 -2 13 -5z
m266 -1 c-13 -2 -33 -2 -45 0 -13 2 -3 4 22 4 25 0 35 -2 23 -4z m-22086 -29
c2 -7 -11 -11 -37 -10 -41 1 -53 11 -22 19 27 8 55 3 59 -9z m-8086 -2381 c11
3 17 1 13 -4 -3 -5 2 -9 11 -9 9 0 28 -13 42 -30 18 -22 33 -30 58 -30 55 0
86 -17 153 -86 35 -35 69 -64 76 -64 18 0 53 -52 48 -73 -2 -9 -8 -15 -13 -12
-24 15 -3 -14 31 -43 37 -32 41 -33 73 -22 28 11 38 10 65 -4 18 -9 32 -24 32
-33 0 -9 3 -13 6 -10 4 3 15 -4 25 -17 10 -13 34 -26 52 -29 37 -6 157 -90
157 -110 0 -23 40 -77 53 -71 7 2 22 25 32 50 13 33 28 51 52 62 18 9 35 24
39 34 7 22 20 23 28 2 5 -14 9 -14 23 -3 8 8 26 12 39 11 15 -2 28 5 40 22 12
20 25 26 50 26 22 0 37 -6 40 -15 4 -8 10 -13 14 -10 4 3 10 -1 13 -9 3 -8 27
-15 57 -18 29 -3 56 -11 60 -17 4 -7 11 -12 16 -12 17 1 44 -11 40 -18 -3 -4
8 -12 24 -19 15 -7 33 -26 40 -42 7 -17 16 -30 21 -30 5 0 9 -6 9 -14 0 -22
28 -27 35 -7 3 11 5 23 4 27 -1 5 -1 26 0 47 1 29 6 40 24 48 18 8 22 17 19
43 -3 26 2 37 22 53 14 11 22 23 19 27 -3 3 25 7 63 7 38 1 83 4 99 8 36 9 73
-6 99 -37 10 -13 25 -21 32 -18 8 3 14 1 14 -4 0 -5 7 -7 15 -4 8 4 15 1 15
-7 0 -7 3 -10 6 -6 9 8 55 -35 65 -61 5 -13 13 -21 18 -17 5 3 11 -3 14 -12 2
-10 4 0 4 23 -1 44 33 104 60 104 8 0 32 13 52 29 28 23 41 27 54 19 12 -6 35
-6 68 1 65 14 109 14 109 0 0 -7 9 -9 21 -6 12 3 19 3 16 0 -7 -6 47 -53 61
-53 5 0 15 -14 22 -31 9 -22 26 -37 56 -49 31 -14 52 -33 77 -72 19 -29 44
-62 57 -73 l23 -20 -11 20 c-5 11 -13 42 -17 69 -9 60 20 166 46 166 10 0 20
11 24 27 3 15 22 41 40 59 l34 32 47 -16 c42 -14 48 -14 58 0 6 8 21 20 34 27
19 10 28 8 66 -19 30 -20 57 -30 83 -30 51 -1 73 -15 123 -78 40 -51 100 -164
100 -189 0 -6 16 -40 35 -76 19 -36 35 -71 35 -79 0 -20 30 -78 40 -78 5 0 10
6 13 13 2 7 8 8 13 3 5 -5 4 -11 -3 -13 -7 -3 -13 -19 -13 -36 0 -33 -41 -80
-63 -71 -14 6 -57 88 -57 109 0 8 -9 24 -20 35 -11 11 -33 49 -49 85 -17 37
-42 80 -56 96 -14 17 -25 37 -25 45 0 12 -62 96 -101 138 -5 6 -28 9 -52 7
-24 -1 -56 3 -71 9 -24 9 -31 6 -59 -22 -18 -18 -37 -31 -43 -30 -17 3 -36
-50 -39 -110 -2 -29 -6 -69 -10 -89 -4 -23 -2 -45 5 -59 8 -15 8 -20 1 -16 -7
5 -11 -9 -11 -43 0 -27 5 -53 10 -56 6 -3 10 -16 10 -29 0 -13 12 -45 27 -72
14 -27 30 -68 35 -91 4 -24 12 -62 16 -85 10 -53 40 -111 52 -103 6 4 10 13
10 20 0 8 11 22 24 30 22 15 26 14 62 -6 46 -26 73 -57 74 -81 0 -10 9 -27 20
-38 11 -11 20 -24 20 -30 0 -5 4 -10 10 -10 5 0 12 -16 16 -35 3 -19 10 -38
15 -41 5 -3 9 -17 9 -32 0 -16 8 -32 20 -40 12 -7 20 -23 20 -38 0 -18 15 -41
47 -73 53 -52 70 -78 76 -120 6 -36 34 -96 53 -112 15 -12 19 -49 6 -49 -4 0
-13 -15 -20 -34 -15 -40 -3 -79 28 -96 11 -6 20 -19 20 -28 0 -10 4 -22 9 -28
5 -5 11 -25 15 -45 5 -30 2 -39 -22 -62 -62 -59 -172 -88 -201 -53 -7 8 -23
17 -36 20 -14 4 -25 11 -25 16 0 6 -7 10 -15 10 -8 0 -19 17 -26 43 -11 37
-53 137 -80 189 -5 10 -9 25 -9 33 0 8 -8 23 -18 33 -9 9 -23 37 -30 62 -8 25
-26 72 -42 105 -15 33 -31 76 -35 95 -4 19 -20 60 -35 90 -15 30 -33 78 -39
105 -7 28 -18 57 -25 65 -16 19 -42 94 -51 145 -3 22 -17 63 -31 91 -13 27
-27 75 -31 105 -3 30 -14 71 -24 91 -11 21 -19 48 -19 61 0 17 -9 27 -34 37
-41 16 -48 25 -105 142 -25 51 -52 94 -58 94 -7 1 -20 2 -28 3 -8 0 -15 8 -15
16 0 8 -4 15 -8 15 -5 0 -28 18 -51 40 -37 35 -48 40 -80 37 -20 -1 -42 -6
-49 -11 -7 -4 -12 -2 -13 6 0 10 -2 11 -6 0 -4 -10 -8 -10 -19 -1 -11 9 -14 9
-14 0 0 -7 -4 -9 -10 -6 -9 5 -14 -7 -11 -27 1 -13 -39 -96 -54 -108 -19 -16
-19 -67 0 -122 8 -24 19 -77 25 -118 7 -41 17 -79 23 -85 7 -5 12 -14 12 -20
1 -17 35 -128 52 -167 19 -45 47 -72 66 -65 9 3 19 -4 26 -19 6 -14 19 -24 31
-24 11 0 20 -6 20 -14 0 -13 15 -33 98 -126 17 -21 32 -43 32 -50 0 -7 16 -30
35 -51 19 -21 45 -60 59 -87 14 -27 31 -52 39 -55 8 -3 17 -16 20 -29 10 -45
39 -113 53 -129 8 -9 17 -28 19 -41 5 -28 35 -99 71 -171 13 -27 24 -60 24
-74 0 -14 12 -47 27 -74 22 -42 25 -55 17 -86 -8 -32 -15 -39 -57 -53 -26 -9
-45 -18 -43 -21 2 -2 -8 -4 -22 -5 -15 0 -49 -3 -75 -6 -36 -5 -50 -3 -54 8
-3 8 -9 12 -14 9 -11 -8 -29 28 -29 59 0 14 -10 36 -23 49 -12 14 -33 55 -47
91 -14 36 -32 68 -42 71 -15 5 -18 17 -30 121 -2 12 -11 30 -20 40 -21 24 -58
117 -58 146 0 12 -11 33 -24 47 -12 15 -29 49 -36 76 -8 28 -29 81 -47 120
-18 38 -33 75 -33 83 0 7 -13 39 -30 72 -16 33 -30 64 -30 70 0 10 -51 125
-76 172 -8 15 -16 41 -17 58 -1 16 -6 30 -10 30 -5 0 -5 5 -2 10 3 6 1 10 -5
10 -6 0 -8 5 -5 10 3 6 1 10 -4 10 -6 0 -11 7 -11 15 0 9 -6 28 -14 44 -8 15
-18 52 -21 82 -9 69 -11 79 -20 106 -4 12 -6 25 -5 29 1 3 -16 17 -37 30 -21
13 -33 24 -28 24 6 0 2 5 -7 11 -10 5 -18 15 -18 22 -1 24 -36 58 -65 63 -17
3 -48 17 -70 31 -21 14 -41 22 -43 17 -17 -46 -41 -81 -60 -89 -12 -5 -22 -17
-23 -25 -3 -35 3 -67 18 -100 9 -19 25 -73 34 -120 10 -47 27 -112 38 -144 12
-33 21 -78 21 -100 0 -23 8 -52 17 -66 17 -25 45 -148 36 -163 -2 -4 -5 -34
-7 -66 -1 -49 1 -58 14 -53 12 5 13 3 4 -9 -6 -8 -10 -30 -9 -51 3 -33 0 -36
-25 -40 -25 -4 -31 1 -46 35 -10 22 -28 43 -42 48 -27 10 -65 3 -57 -11 13
-21 -8 -35 -54 -37 -39 -2 -54 -8 -79 -33 -37 -36 -85 -40 -117 -10 -19 18
-28 19 -62 12 -31 -7 -47 -5 -72 7 -17 9 -29 20 -25 24 4 4 0 7 -9 7 -9 0 -21
9 -27 20 -6 11 -17 20 -25 20 -7 0 -16 13 -20 29 -8 38 -30 56 -68 56 -26 0
-35 8 -58 45 -15 25 -28 52 -28 61 -1 8 -12 26 -26 39 -24 23 -42 55 -78 140
-8 19 -26 60 -40 90 -20 42 -25 65 -20 96 6 47 -9 81 -61 137 -20 21 -36 43
-36 49 0 6 -3 8 -6 5 -9 -9 -63 64 -64 84 0 24 -33 50 -50 39 -10 -6 -25 1
-52 26 -52 47 -68 45 -68 -8 0 -31 12 -64 40 -116 22 -41 38 -78 34 -83 -8
-13 35 -99 49 -99 8 0 8 -3 -1 -9 -11 -6 -9 -19 7 -67 12 -32 21 -73 21 -92 0
-18 8 -44 17 -58 9 -15 18 -43 19 -63 1 -20 4 -43 7 -51 3 -8 8 -32 11 -54 3
-21 13 -47 22 -57 15 -17 28 -59 41 -137 3 -18 13 -38 23 -45 9 -6 23 -30 30
-52 7 -22 33 -81 57 -132 23 -51 43 -95 43 -99 0 -4 11 -17 25 -30 33 -30 35
-88 4 -105 -34 -18 -62 2 -83 60 -10 28 -22 54 -27 57 -11 7 -49 84 -49 100 0
6 -6 17 -14 23 -11 10 -15 8 -18 -6 -5 -29 -55 43 -69 102 -7 28 -19 57 -26
65 -7 9 -19 36 -28 59 -13 37 -13 53 -3 101 11 57 11 59 -20 107 -18 27 -32
56 -32 63 0 8 -18 51 -41 97 -39 81 -41 84 -68 78 -22 -5 -36 0 -59 20 -17 14
-34 35 -37 45 -4 11 -14 20 -22 20 -9 0 -13 3 -10 6 3 4 -9 25 -28 47 -19 22
-45 62 -57 89 -18 40 -25 47 -43 42 -27 -7 -159 57 -174 83 -8 16 -14 16 -41
6 -17 -6 -41 -9 -53 -7 -12 3 -34 5 -49 5 -18 0 -28 6 -28 15 0 8 -3 14 -7 14
-5 0 -13 12 -20 26 -13 27 -5 62 18 81 23 19 88 13 108 -9 17 -17 24 -18 59
-9 51 14 87 1 125 -45 21 -25 39 -36 69 -41 23 -3 49 -14 60 -25 10 -10 21
-18 25 -18 4 0 31 -23 60 -52 44 -43 53 -49 53 -31 0 21 -22 82 -42 117 -6 11
-13 49 -16 85 -6 72 -18 88 -81 111 -26 9 -36 10 -39 1 -6 -18 -72 -13 -101 8
-30 22 -71 18 -71 -5 0 -18 -9 -18 -29 0 -19 17 -64 27 -136 31 -86 4 -134 17
-159 42 -31 31 -24 60 15 65 17 3 32 2 34 -2 2 -4 25 -15 51 -25 36 -14 48
-15 54 -5 5 8 13 9 21 4 8 -4 27 -7 44 -5 17 1 44 -3 59 -9 22 -8 31 -8 37 1
4 6 12 8 19 4 7 -4 43 -8 81 -10 37 -1 75 -7 83 -14 13 -11 17 -10 22 3 8 20
-32 67 -50 60 -7 -3 -48 31 -92 74 -73 72 -84 79 -127 84 -26 3 -57 14 -68 24
-19 17 -22 17 -32 3 -16 -21 -68 -30 -105 -20 -36 11 -44 6 -69 -41 -11 -21
-30 -46 -42 -55 l-22 -18 20 -27 c24 -30 27 -65 7 -90 -15 -21 -35 -23 -71 -6
-30 14 -33 50 -8 103 14 29 15 40 5 55 -18 29 -15 48 13 85 19 24 33 32 51 30
13 -1 27 2 30 7 3 4 10 6 15 2 10 -6 49 31 66 60 5 9 26 16 50 17 32 2 43 7
47 23 5 20 7 20 32 -7 17 -19 33 -27 45 -24z m-374 -235 c-3 -8 -6 -5 -6 6 -1
11 2 17 5 13 3 -3 4 -12 1 -19z m235 -346 c12 -26 23 -50 24 -53 5 -10 -33
-51 -59 -63 -17 -9 -23 -22 -25 -59 -3 -43 0 -50 28 -73 17 -15 38 -40 46 -56
13 -26 19 -28 46 -23 27 6 35 1 95 -62 35 -37 74 -86 85 -108 11 -22 29 -49
39 -60 25 -27 69 -130 69 -160 0 -14 4 -25 9 -25 11 0 31 -55 31 -85 0 -31
-24 -49 -55 -41 -16 4 -34 23 -51 54 -42 79 -91 155 -121 191 -15 19 -41 62
-58 95 -25 52 -35 62 -62 67 -18 4 -39 11 -45 16 -22 17 -58 22 -58 9 0 -7 11
-46 26 -87 14 -41 29 -112 35 -159 5 -47 16 -98 23 -115 8 -16 23 -64 34 -105
11 -41 24 -86 30 -100 35 -90 39 -125 21 -192 -10 -39 -9 -49 15 -100 34 -74
34 -131 1 -180 -14 -20 -35 -38 -47 -40 -20 -3 -23 -8 -20 -41 5 -59 -14 -95
-51 -99 -29 -3 -32 -6 -31 -36 2 -41 -42 -92 -80 -92 -15 0 -40 -10 -56 -21
-27 -21 -30 -21 -75 -6 -42 15 -49 15 -70 1 -15 -10 -33 -13 -51 -8 -49 11
-118 45 -143 70 -15 16 -31 22 -42 19 -13 -5 -43 13 -99 57 -78 60 -83 67
-135 175 -30 61 -55 119 -55 128 0 9 -11 36 -25 60 -38 64 -85 199 -101 290
-17 96 -6 176 28 199 18 13 20 21 13 53 -17 83 -5 146 41 215 19 27 34 60 34
72 0 23 47 76 67 76 7 0 17 -16 24 -35 17 -46 27 -33 30 35 2 42 9 61 27 82
13 14 30 24 38 21 8 -3 20 8 30 30 15 32 49 57 76 57 7 0 23 -10 36 -22 20
-19 26 -20 30 -8 3 8 18 28 34 44 24 23 34 27 61 22 18 -3 42 -17 54 -31 25
-28 33 -31 33 -11 0 20 44 46 69 39 19 -5 21 -1 21 38 0 57 35 111 67 103 18
-5 23 -2 23 13 0 31 70 89 93 76 4 -3 17 -26 29 -51z m2638 -1408 c0 -8 -5
-12 -10 -9 -6 4 -8 11 -5 16 9 14 15 11 15 -7z m-1182 -112 c2 -7 15 -17 27
-22 19 -7 23 -16 22 -49 -1 -23 1 -41 4 -41 4 0 3 -19 -3 -42 -8 -36 -6 -50
12 -86 17 -33 19 -46 10 -56 -8 -11 -8 -15 2 -19 7 -3 -4 -6 -25 -6 -58 -1
-75 12 -83 66 -4 26 -15 61 -26 78 -41 68 -47 178 -10 188 31 8 64 3 70 -11z
m21965 -1299 c-7 -2 -21 -2 -30 0 -10 3 -4 5 12 5 17 0 24 -2 18 -5z"/>
<path d="M46591 29725 c-1 -33 2 -55 8 -55 7 0 11 23 11 55 0 30 -4 55 -8 55
-5 0 -10 -25 -11 -55z"/>
<path d="M45515 30010 c3 -5 12 -10 20 -10 8 0 17 5 20 10 4 6 -5 10 -20 10
-15 0 -24 -4 -20 -10z"/>
<path d="M45492 29700 c0 -14 2 -19 5 -12 2 6 2 18 0 25 -3 6 -5 1 -5 -13z"/>
<path d="M21139 25546 c13 -5 29 -5 42 0 17 8 13 9 -21 9 -34 0 -38 -1 -21 -9z"/>
<path d="M25133 25553 c9 -2 23 -2 30 0 6 3 -1 5 -18 5 -16 0 -22 -2 -12 -5z"/>
<path d="M21405 25530 c-3 -5 -1 -10 4 -10 6 0 11 5 11 10 0 6 -2 10 -4 10 -3
0 -8 -4 -11 -10z"/>
<path d="M24410 25510 c0 -5 5 -10 10 -10 6 0 10 5 10 10 0 6 -4 10 -10 10 -5
0 -10 -4 -10 -10z"/>
<path d="M39365 22470 c-11 -12 -28 -20 -39 -19 -48 3 -57 -2 -75 -45 -14 -32
-26 -45 -47 -50 -16 -4 -50 -31 -76 -59 -43 -47 -50 -51 -68 -39 -11 6 -21 12
-24 12 -2 0 -11 -21 -21 -47 -10 -27 -30 -66 -45 -88 -14 -22 -32 -65 -39 -95
-7 -30 -20 -70 -29 -89 -14 -30 -14 -36 0 -65 27 -53 58 -138 58 -156 0 -28
27 -45 45 -30 12 10 18 10 30 0 13 -11 20 -11 40 0 13 7 31 10 39 7 9 -4 23 3
34 18 24 31 58 44 98 38 30 -5 31 -4 43 51 8 36 23 68 42 88 31 35 35 54 19
108 -12 40 4 119 27 133 9 6 14 27 14 60 -1 86 10 171 24 187 19 22 24 88 7
95 -24 9 -39 5 -57 -15z"/>
<path d="M12281 23826 c-6 -8 -26 -17 -44 -20 -46 -9 -49 -9 -78 -2 -22 6 -29
2 -54 -33 -15 -23 -31 -41 -36 -41 -14 0 -109 -107 -144 -161 -19 -30 -35 -47
-35 -39 0 12 -3 11 -17 -2 -21 -21 -44 -88 -31 -88 12 0 6 -37 -16 -100 -8
-25 -22 -88 -31 -141 -22 -126 -14 -202 31 -293 19 -38 34 -78 34 -90 0 -13
12 -31 29 -44 16 -12 39 -42 52 -67 12 -25 26 -45 31 -45 20 0 79 -48 89 -73
9 -20 16 -26 28 -21 32 14 76 4 94 -20 9 -13 29 -18 80 -19 37 -1 67 -6 67
-11 0 -4 6 -4 13 2 6 6 26 12 42 14 27 3 30 7 33 43 1 22 6 47 9 55 3 8 7 18
7 22 1 3 4 10 9 14 4 4 7 21 7 37 0 41 29 138 48 160 15 17 25 80 12 72 -27
-17 -11 96 22 160 9 17 19 53 23 80 4 28 16 70 26 95 12 30 19 79 21 149 3 87
7 105 23 117 18 13 17 15 -12 56 -16 24 -37 63 -47 87 -19 50 -99 132 -104
106 -2 -8 -8 -15 -13 -15 -6 0 -8 4 -5 9 6 10 -26 21 -62 21 -13 0 -35 9 -49
20 -30 24 -37 24 -52 6z"/>
<path d="M15462 23790 c-3 -8 -15 -25 -27 -38 -13 -12 -25 -37 -28 -55 -3 -18
-16 -57 -29 -87 -14 -30 -33 -82 -43 -115 -10 -33 -27 -74 -37 -91 -10 -17
-18 -36 -18 -43 0 -6 -14 -39 -31 -73 -17 -35 -40 -92 -51 -128 -11 -36 -26
-72 -33 -80 -16 -17 -37 -70 -29 -70 9 0 43 44 44 55 0 6 9 16 20 23 11 7 34
35 51 62 23 37 37 50 54 50 23 0 35 17 35 50 0 10 15 47 33 82 18 35 39 79 47
98 7 19 22 47 31 61 10 15 30 63 44 108 14 44 30 81 34 81 5 0 11 19 15 43 4
23 9 52 13 64 5 21 2 23 -42 21 -32 -2 -49 -7 -53 -18z"/>
<path d="M16126 23702 c-15 -9 -39 -39 -52 -67 -36 -74 -50 -96 -57 -88 -4 3
-7 -4 -7 -17 0 -13 -5 -40 -11 -59 -7 -20 -14 -43 -16 -51 -3 -11 -6 -11 -12
-2 -11 18 -28 -23 -34 -83 -5 -48 -16 -82 -36 -115 -5 -8 -15 -42 -21 -75 -7
-33 -21 -72 -31 -86 -18 -28 -53 -158 -44 -167 11 -11 33 21 44 63 6 24 21 54
34 67 12 13 38 50 56 82 18 33 39 66 47 74 8 7 14 20 14 29 0 17 37 99 56 123
6 8 21 47 33 86 11 39 28 77 36 84 8 7 15 27 15 44 1 17 7 60 15 96 20 93 21
92 -29 62z"/>
<path d="M14138 22956 c-7 -14 -16 -25 -20 -26 -4 0 -24 -8 -44 -16 -20 -9
-47 -13 -60 -10 -19 5 -26 0 -44 -36 -52 -107 -83 -163 -101 -182 -11 -11 -22
-32 -25 -46 -3 -14 -16 -47 -29 -75 -24 -50 -45 -215 -28 -215 10 0 59 -79 56
-90 -2 -8 64 -35 77 -32 3 0 15 -8 27 -20 l22 -20 22 21 c13 12 31 21 40 21
10 0 20 4 24 9 3 6 18 6 36 1 25 -7 33 -5 47 12 9 11 24 28 33 37 8 9 25 32
37 51 12 19 35 48 51 63 17 16 39 42 48 58 17 28 22 30 66 27 l47 -3 0 33 c0
20 -4 31 -10 27 -25 -15 -7 123 19 152 10 11 16 32 15 53 -2 36 -46 135 -56
125 -5 -5 -33 26 -71 78 -12 17 -17 18 -55 6 -35 -10 -47 -10 -70 1 -15 8 -30
16 -34 17 -4 2 -13 -8 -20 -21z"/>
<path d="M13050 21905 c-19 -23 -71 -28 -112 -11 -35 15 -38 15 -50 -2 -25
-36 -53 -44 -97 -26 -38 15 -41 15 -61 -4 -24 -22 -98 -34 -117 -19 -14 10
-43 -7 -43 -25 0 -5 -9 -19 -20 -30 -38 -41 -56 -168 -24 -168 9 0 18 -9 21
-20 3 -11 10 -17 16 -13 6 4 8 0 4 -10 -4 -12 -1 -17 9 -17 9 0 14 -6 11 -13
-4 -10 2 -13 18 -9 28 5 85 -32 85 -54 0 -9 14 -1 35 21 21 20 46 35 60 35 13
0 32 11 43 25 25 31 72 51 83 34 8 -13 32 27 42 71 4 14 15 34 25 45 10 11 26
42 35 69 9 27 28 64 42 82 26 33 32 54 16 54 -5 0 -14 -7 -21 -15z"/>
<path d="M12935 21490 c-3 -5 -1 -10 4 -10 6 0 11 5 11 10 0 6 -2 10 -4 10 -3
0 -8 -4 -11 -10z"/>
<path d="M41879 23382 c-11 -32 -18 -36 -82 -48 -22 -4 -41 -14 -45 -23 -9
-24 -34 -40 -64 -41 -35 0 -41 -12 -29 -57 8 -29 7 -50 -6 -93 -9 -30 -22 -62
-29 -70 -6 -8 -14 -67 -17 -134 -4 -65 -11 -124 -17 -131 -11 -13 -3 -35 30
-85 6 -8 17 -32 26 -53 13 -33 19 -38 37 -33 16 4 31 -2 50 -19 17 -17 38 -25
61 -25 19 0 37 -4 41 -9 7 -13 48 -10 57 4 5 6 8 5 8 -3 0 -9 8 -7 26 7 15 12
32 21 40 21 7 0 17 15 24 34 6 18 20 42 30 51 11 10 20 24 20 31 0 7 5 14 12
16 7 3 13 15 13 29 1 13 2 44 3 69 2 57 29 79 66 55 l24 -16 -2 195 c-1 130
-5 199 -13 207 -8 8 -13 6 -18 -10 -9 -31 -32 -26 -51 12 -27 52 -55 77 -88
77 -36 0 -44 5 -74 44 l-22 29 -11 -31z"/>
<path d="M42128 22206 c-20 -25 -38 -36 -68 -41 -22 -4 -43 -12 -47 -19 -14
-23 -55 -40 -63 -26 -10 16 -50 -4 -50 -24 0 -17 -49 -59 -90 -77 -16 -8 -30
-18 -30 -23 0 -24 -33 -45 -61 -39 -22 4 -30 1 -35 -13 -19 -60 -60 -150 -71
-157 -20 -12 -16 -32 27 -120 51 -104 76 -138 89 -118 8 12 12 12 25 2 11 -9
32 -12 61 -8 35 3 51 0 69 -14 24 -19 25 -19 44 9 11 15 32 34 46 42 15 7 29
24 32 36 3 12 14 30 25 40 10 9 19 23 19 30 0 7 8 19 18 26 11 8 21 31 25 58
9 67 47 181 57 175 6 -4 10 37 10 105 0 61 5 120 11 131 10 19 4 59 -9 59 -4
0 -19 -15 -34 -34z m-218 -662 c0 -8 -5 -12 -10 -9 -6 4 -8 11 -5 16 9 14 15
11 15 -7z"/>
<path d="M40973 23183 c-4 -10 -19 -29 -35 -43 -18 -17 -31 -43 -39 -80 -6
-30 -15 -62 -20 -71 -6 -11 -4 -21 5 -28 9 -8 13 -29 10 -68 -2 -35 2 -66 11
-84 8 -15 15 -39 15 -53 0 -40 67 -186 85 -186 6 0 21 -9 33 -20 20 -19 22
-19 23 -3 1 36 10 67 20 74 6 3 10 8 9 10 -1 2 2 12 6 22 5 15 9 16 15 5 6 -8
9 4 9 34 0 46 22 146 37 171 12 19 4 55 -33 144 -19 45 -34 87 -34 93 0 14
-25 40 -39 40 -6 0 -11 4 -11 8 0 5 -14 18 -30 31 -28 20 -31 21 -37 4z"/>
<path d="M40720 23096 c0 -7 -16 -22 -36 -32 -20 -11 -44 -23 -53 -28 -9 -5
-25 -36 -35 -70 -10 -34 -24 -68 -31 -76 -9 -10 -15 -55 -18 -140 -2 -69 -8
-136 -12 -149 -7 -20 -5 -23 8 -18 18 7 31 -21 22 -46 -4 -8 1 -29 9 -46 9
-16 16 -39 16 -51 0 -11 4 -20 9 -20 9 0 66 -80 73 -102 3 -7 12 -6 26 3 19
12 27 10 69 -13 26 -14 47 -31 46 -37 -2 -6 6 -11 17 -11 11 0 19 3 19 8 -4
21 5 31 49 55 43 23 51 25 73 13 24 -12 26 -11 36 15 9 23 8 31 -6 43 -10 9
-22 16 -27 16 -5 0 -14 10 -19 22 -6 12 -24 29 -41 37 -32 16 -74 81 -74 114
0 10 -6 28 -14 40 -17 25 -49 156 -64 261 -8 50 -8 82 0 111 15 56 3 115 -22
115 -11 0 -20 -6 -20 -14z"/>
<path d="M14027 10689 c-10 -6 -34 -9 -53 -7 -20 2 -34 0 -34 -7 0 -5 -4 -3
-10 5 -13 21 -25 4 -22 -34 2 -20 -3 -37 -12 -45 -9 -8 -16 -23 -16 -35 0 -12
-7 -31 -15 -42 -17 -22 -19 -60 -4 -69 6 -4 8 -13 5 -21 -3 -7 -1 -16 3 -18 8
-6 25 -64 22 -78 0 -5 3 -8 9 -8 5 0 7 -7 4 -15 -3 -8 8 -39 25 -68 17 -30 31
-65 31 -78 0 -35 42 -122 52 -107 5 9 8 4 8 -13 0 -32 31 -61 65 -61 14 0 25
-4 25 -9 0 -4 8 -10 18 -13 9 -3 42 -26 72 -51 35 -29 60 -43 70 -39 8 4 36 8
63 10 26 1 54 8 62 14 17 14 17 14 33 -15 9 -16 11 -17 12 -4 0 10 11 20 25
23 27 7 49 0 40 -13 -2 -5 2 -17 10 -27 14 -18 14 -18 15 3 0 12 -4 25 -10 28
-33 21 12 155 61 181 l27 14 -34 67 c-19 38 -37 84 -40 103 -4 19 -19 62 -34
95 -15 33 -33 75 -40 93 -11 29 -16 32 -41 27 -20 -5 -29 -3 -29 6 0 7 -2 10
-5 7 -3 -3 -40 31 -83 76 -93 98 -90 96 -124 96 -16 0 -28 4 -28 9 0 5 -20 14
-44 20 -54 13 -56 13 -79 0z"/>
<path d="M15896 9945 c-3 -9 5 -33 18 -53 13 -21 25 -59 28 -88 3 -34 12 -59
26 -74 12 -13 24 -40 28 -59 8 -51 41 -140 59 -157 8 -9 15 -32 15 -51 0 -21
12 -58 29 -87 15 -28 36 -74 45 -103 9 -28 23 -54 30 -56 7 -3 16 -17 20 -31
9 -35 52 -80 71 -72 20 7 21 143 1 191 -9 21 -14 62 -13 105 2 61 -1 72 -22
92 l-23 23 7 -25 c6 -22 4 -21 -19 9 -14 19 -29 51 -32 70 -4 20 -19 50 -33
68 -36 43 -71 102 -71 117 0 7 -9 21 -21 32 -12 10 -28 32 -36 49 -25 48 -65
86 -85 79 -10 -3 -18 -1 -18 5 0 6 5 11 10 11 6 0 10 5 10 10 0 16 -17 12 -24
-5z"/>
<path d="M15298 9792 c3 -36 11 -64 23 -77 10 -11 25 -46 33 -77 8 -30 26 -78
40 -104 14 -27 26 -59 26 -72 0 -20 16 -54 57 -126 7 -11 13 -40 13 -63 0 -34
5 -46 25 -59 14 -9 25 -22 25 -28 0 -44 101 -185 133 -186 30 -1 -32 271 -72
314 -17 19 -31 51 -37 82 -2 13 -66 124 -111 193 -57 87 -72 116 -68 128 2 6
-3 17 -12 25 -9 7 -25 32 -35 54 -28 65 -45 63 -40 -4z"/>
<path d="M12400 10365 c-29 -31 -96 -36 -102 -8 -2 14 -12 8 -44 -25 -23 -24
-54 -46 -70 -51 -18 -4 -31 -16 -35 -32 -4 -13 -7 -21 -8 -16 -2 11 -41 -31
-41 -44 0 -7 -5 -8 -12 -3 -7 5 -26 9 -42 9 -24 0 -29 -5 -32 -27 -3 -35 -25
-66 -61 -87 -26 -16 -28 -22 -28 -83 0 -36 3 -64 7 -62 4 3 5 -8 4 -23 -2 -16
-4 -34 -5 -40 0 -7 -10 -22 -21 -33 -19 -19 -20 -27 -12 -114 5 -51 16 -107
25 -125 8 -17 21 -65 28 -107 7 -47 19 -82 30 -93 9 -9 27 -42 39 -74 20 -53
81 -144 142 -210 13 -14 33 -39 46 -56 14 -19 33 -31 47 -31 12 0 43 -12 68
-26 38 -21 50 -23 68 -14 23 13 105 5 125 -11 8 -7 14 -2 18 14 5 22 75 77 99
77 7 1 26 30 42 66 17 36 37 69 45 74 12 7 15 40 17 177 3 181 -9 279 -37 330
-10 18 -30 65 -45 105 -14 40 -31 78 -37 85 -16 20 -30 90 -34 165 -1 36 -6
74 -12 85 -5 10 -14 45 -21 78 -19 89 -27 103 -66 119 -19 8 -35 20 -35 25 0
19 -26 12 -50 -14z"/>
<path d="M10705 36315 c28 -7 84 -13 125 -14 68 0 73 1 56 14 -15 11 -47 15
-125 14 l-106 -1 50 -13z"/>
<path d="M12130 36295 c0 -19 5 -35 10 -35 6 0 10 4 10 9 0 5 12 11 28 13 19
2 28 9 30 26 3 20 -1 22 -37 22 -40 0 -41 -1 -41 -35z"/>
<path d="M44730 36326 c0 -2 9 -6 20 -9 11 -3 18 -1 14 4 -5 9 -34 13 -34 5z"/>
<path d="M45497 36324 c-11 -11 -8 -44 3 -44 6 0 10 5 10 10 0 6 6 9 13 8 6
-2 12 4 12 12 0 16 -26 25 -38 14z"/>
<path d="M45690 36321 c0 -6 -21 -11 -47 -13 -37 -2 -48 -7 -48 -20 0 -9 -14
-28 -30 -42 -17 -14 -38 -32 -47 -41 -10 -8 -18 -12 -18 -8 0 4 -12 -5 -27
-19 -16 -13 -43 -35 -60 -47 -46 -31 -42 -44 10 -36 58 10 90 28 107 62 22 42
53 83 63 83 5 0 7 -18 4 -40 -2 -22 0 -40 5 -40 15 0 91 54 138 98 43 41 44
43 26 57 -22 17 -76 20 -76 6z"/>
<path d="M45327 36073 c-4 -3 -7 -17 -7 -30 0 -21 -4 -23 -50 -23 -54 0 -55
-1 -39 -32 8 -15 8 -19 -1 -13 -7 4 -23 -4 -38 -18 -15 -13 -40 -33 -57 -43
-16 -10 -42 -31 -57 -46 -16 -17 -37 -28 -55 -29 l-28 -1 29 -8 c39 -12 121 6
168 36 21 13 47 24 58 24 18 0 57 17 70 30 3 3 29 23 58 45 57 43 64 55 29 55
-15 0 -29 11 -40 30 -18 30 -28 36 -40 23z m-93 -142 c3 -5 -1 -14 -8 -20 -12
-10 -13 -8 -9 8 6 23 9 25 17 12z"/>
<path d="M45140 36031 c0 -11 26 -22 34 -14 12 12 5 23 -14 23 -11 0 -20 -4
-20 -9z"/>
<path d="M44280 35999 c0 -5 5 -7 10 -4 6 3 10 8 10 11 0 2 -4 4 -10 4 -5 0
-10 -5 -10 -11z"/>
<path d="M44985 35795 c-3 -8 -7 -22 -10 -30 -3 -11 -14 -13 -51 -8 -44 6 -46
5 -39 -16 8 -27 -30 -63 -60 -55 -16 4 -17 3 -5 -5 14 -10 7 -15 -13 -12 -4 1
-18 -5 -30 -14 -14 -10 -16 -15 -7 -15 11 0 11 -4 -3 -17 -15 -15 -19 -16 -26
-4 -5 7 -14 10 -21 6 -9 -6 -9 -9 1 -16 18 -11 5 -21 -26 -21 -15 0 -24 -5
-22 -12 6 -19 110 -10 155 13 23 12 47 21 55 21 21 0 95 42 159 90 56 42 67
67 24 56 -16 -4 -25 2 -38 24 -19 33 -36 39 -43 15z"/>
<path d="M12180 35570 c-8 -5 -12 -12 -9 -15 8 -8 39 5 39 16 0 11 -11 11 -30
-1z"/>
<path d="M44640 35521 l0 -31 -60 0 c-42 0 -60 -4 -60 -13 0 -7 -23 -30 -50
-50 -28 -21 -55 -49 -60 -63 -7 -17 -17 -24 -35 -24 -14 0 -25 -4 -25 -9 0
-14 124 -5 152 10 12 8 38 19 57 25 18 7 62 32 97 56 51 35 62 47 57 63 -3 11
-10 22 -14 23 -5 2 -9 10 -9 18 0 8 -4 14 -9 14 -5 0 -16 3 -25 6 -13 5 -16
-1 -16 -25z m-160 -121 c0 -5 -5 -10 -11 -10 -5 0 -7 5 -4 10 3 6 8 10 11 10
2 0 4 -4 4 -10z"/>
<path d="M12117 35533 c-12 -12 -7 -22 8 -17 8 4 15 10 15 15 0 11 -14 12 -23
2z"/>
<path d="M44515 35300 c-3 -6 1 -7 9 -4 18 7 21 14 7 14 -6 0 -13 -4 -16 -10z"/>
</g>
</svg>
