<svg xmlns="http://www.w3.org/2000/svg" width="512" height="512" viewBox="0 0 512 512" version="1.1"><path d="" stroke="#ffffff" fill="#ffffff" fill-rule="evenodd"/><path d="M 291.726 107.377 C 289.650 108.149, 286.634 109.843, 285.023 111.140 C 282.037 113.546, 177.644 238.489, 173.422 244.710 C 170.199 249.459, 169.354 256.174, 171.237 262.063 C 172.421 265.764, 184.361 281.220, 225.977 332.925 C 255.252 369.295, 280.647 400.155, 282.412 401.500 C 284.176 402.846, 287.868 404.467, 290.617 405.101 C 308.195 409.158, 323.275 388.976, 314.173 373.574 C 313.174 371.883, 291.571 344.731, 266.167 313.235 L 219.977 255.971 268.077 198.398 C 294.532 166.732, 317.027 138.951, 318.066 136.662 C 321.199 129.762, 320.313 121.261, 315.782 114.754 C 311.189 108.160, 299.368 104.535, 291.726 107.377" stroke="none" fill="#ffffff" fill-rule="evenodd"/></svg>