<svg xmlns="http://www.w3.org/2000/svg" width="512" height="512" viewBox="0 0 512 512" version="1.1"><path d="" stroke="#ffffff" fill="#ffffff" fill-rule="evenodd"/><path d="M 208.500 107.900 C 203.177 110.370, 198.434 115.518, 196.543 120.879 C 194.591 126.411, 194.661 130.390, 196.804 135.705 C 197.791 138.151, 218.059 164.196, 245.249 197.957 L 291.998 256.004 244.249 313.033 C 217.987 344.399, 195.453 371.961, 194.173 374.281 C 192.240 377.787, 191.907 379.634, 192.203 385.207 C 192.496 390.710, 193.102 392.684, 195.575 396.207 C 199.842 402.286, 205.960 405.444, 213.525 405.475 C 225.550 405.525, 222.483 408.594, 283.279 335.666 C 313.476 299.442, 339.154 268.161, 340.341 266.152 C 343.063 261.548, 343.295 251.062, 340.777 246.500 C 339.011 243.301, 238.985 118.791, 233.658 113.162 C 226.933 106.055, 216.969 103.970, 208.500 107.900" stroke="#ffffff" fill="#ffffff" fill-rule="evenodd"/></svg>